<?xml version="1.0" standalone="no"?>
<!DOCTYPE svg PUBLIC "-//W3C//DTD SVG 20010904//EN"
 "http://www.w3.org/TR/2001/REC-SVG-20010904/DTD/svg10.dtd">
<svg version="1.0" xmlns="http://www.w3.org/2000/svg"
 width="637.000000pt" height="238.000000pt" viewBox="0 0 637.000000 238.000000"
 preserveAspectRatio="xMidYMid meet">

<g transform="translate(0.000000,238.000000) scale(0.100000,-0.100000)"
fill="#000000" stroke="none">
<path d="M1037 2193 c-52 -98 -141 -268 -197 -378 -124 -241 -534 -1027 -597
-1143 l-45 -82 234 0 233 0 36 68 c20 37 130 247 244 467 115 220 236 453 269
517 34 64 64 114 67 110 4 -4 87 -167 186 -362 l180 -355 -277 3 -277 3 -121
-223 -120 -223 741 -3 c407 -1 742 0 745 2 2 3 -9 31 -25 63 -91 181 -738
1451 -800 1571 l-74 142 -154 0 -153 0 -95 -177z"/>
</g>
</svg>
